<svg width="40" height="40" viewBox="0 0 40 40" fill="none" xmlns="http://www.w3.org/2000/svg">
<rect width="40" height="40" rx="5" fill="url(#paint0_linear_8_27)"/>
<path d="M19.6309 27.1797C19.8359 27.3848 20.123 27.3848 20.3281 27.1797L26.3984 21.1504C26.6035 20.9863 26.6035 20.6582 26.3984 20.4531L25.5781 19.6738C25.4141 19.4688 25.0859 19.4688 24.8809 19.6738L20 24.5137L15.0781 19.6738C14.873 19.4688 14.5859 19.4688 14.3809 19.6738L13.5605 20.4531C13.3555 20.6582 13.3555 20.9863 13.5605 21.1504L19.6309 27.1797ZM20.3281 20.6172L26.3984 14.5879C26.6035 14.4238 26.6035 14.0957 26.3984 13.8906L25.5781 13.1113C25.4141 12.9062 25.0859 12.9062 24.8809 13.1113L20 17.9512L15.0781 13.1113C14.873 12.9062 14.5859 12.9062 14.3809 13.1113L13.5605 13.8906C13.3555 14.0957 13.3555 14.4238 13.5605 14.5879L19.6309 20.6172C19.8359 20.8223 20.123 20.8223 20.3281 20.6172Z" fill="white"/>
<defs>
<linearGradient id="paint0_linear_8_27" x1="20" y1="0" x2="20" y2="40" gradientUnits="userSpaceOnUse">
<stop stop-color="#F3A300"/>
<stop offset="1" stop-color="#F07A13"/>
</linearGradient>
</defs>
</svg>
