<svg width="250" height="102" xmlns="http://www.w3.org/2000/svg" fill="none">

 <g>
  <title>Layer 1</title>
  <rect id="svg_1" stroke-width="8" stroke-opacity="0.2" stroke="white" height="94" width="242" y="4" x="4"/>
  <g>
   <path fill-opacity="0.2" fill="white" d="m37.12928,72l30.78004,0l0,-7.92l-21.06,0l0,-34.08l-9.72004,0l0,42zm55.84784,0.72c13.2,0 22.98,-9.18 22.98,-21.72c0,-12.54 -9.78,-21.72 -22.98,-21.72c-13.26,0 -22.98,9.24 -22.98,21.72c0,12.48 9.72,21.72 22.98,21.72zm0,-8.28c-7.5,0 -13.14,-5.46 -13.14,-13.44c0,-7.98 5.64,-13.44 13.14,-13.44c7.5,0 13.14,5.46 13.14,13.44c0,7.98 -5.64,13.44 -13.14,13.44zm58.6646,-1.8c-2.46,1.32 -4.92,1.8 -7.56,1.8c-8.0396,0 -13.6196,-5.58 -13.6196,-13.44c0,-7.98 5.58,-13.44 13.7396,-13.44c4.26,0 7.8,1.5 10.86,4.74l6.24,-5.76c-4.08,-4.74 -10.2,-7.26 -17.58,-7.26c-13.3796,0 -23.0996,9.06 -23.0996,21.72c0,12.66 9.72,21.72 22.9196,21.72c6,0 12.36,-1.86 16.98,-5.34l0,-17.04l-8.88,0l0,12.3zm38.249,10.08c13.2,0 22.98,-9.18 22.98,-21.72c0,-12.54 -9.78,-21.72 -22.98,-21.72c-13.26,0 -22.98,9.24 -22.98,21.72c0,12.48 9.72,21.72 22.98,21.72zm0,-8.28c-7.5,0 -13.14,-5.46 -13.14,-13.44c0,-7.98 5.64,-13.44 13.14,-13.44c7.5,0 13.14,5.46 13.14,13.44c0,7.98 -5.64,13.44 -13.14,13.44z"/>
  </g>
 </g>
</svg>